<svg width="102" height="38" viewBox="0 0 102 38" fill="none" xmlns="http://www.w3.org/2000/svg">
<path d="M100.389 22.7005L92.6526 20.185C91.5046 19.8112 91.5046 18.1855 92.6526 17.8116L100.389 15.2961C100.907 15.1286 101.191 14.5721 101.022 14.0544L100.42 12.2003C100.252 11.6827 99.696 11.3985 99.1787 11.5676L91.442 14.0832C90.294 14.457 89.3388 13.1409 90.0472 12.1631L94.8285 5.57744C95.148 5.1376 95.05 4.52014 94.6104 4.20042L93.033 3.05347C92.5934 2.73374 91.9763 2.83186 91.6567 3.27169L86.8754 9.85737C86.1653 10.8352 84.62 10.3327 84.62 9.12487V0.986244C84.62 0.441526 84.1787 0 83.6343 0H81.6849C81.1405 0 80.6992 0.441526 80.6992 0.986244V37.0138C80.6992 37.5585 81.1405 38 81.6849 38H83.6343C84.1787 38 84.62 37.5585 84.62 37.0138V28.8751C84.62 27.6673 86.1653 27.1648 86.8754 28.1426L91.6567 34.7283C91.9763 35.1681 92.5917 35.2663 93.033 34.9465L94.6104 33.7996C95.05 33.4799 95.148 32.8624 94.8285 32.4226L90.0472 25.8369C89.3371 24.8591 90.2923 23.543 91.442 23.9168L99.1787 26.4324C99.696 26.5998 100.252 26.3173 100.42 25.7997L101.022 23.9439C101.189 23.4263 100.907 22.8697 100.389 22.7022V22.7005Z" fill="#00DA93"/>
<path d="M15.7219 8.83383C14.3186 8.83383 13.1013 7.8036 13.1013 6.24388C13.1013 4.68416 14.3186 3.65393 15.7219 3.65393C17.1252 3.65393 18.3425 4.68416 18.3425 6.24388C18.3425 7.8036 17.1252 8.83383 15.7219 8.83383ZM16.6214 26.7486H14.8529C14.5705 26.7486 14.3 26.637 14.1005 26.4374C13.901 26.2377 13.7894 25.9671 13.7894 25.6846V12.2104C13.7894 11.9279 13.901 11.6572 14.1005 11.4576C14.3 11.258 14.5705 11.1446 14.8529 11.1446H16.6214C16.9037 11.1446 17.1742 11.2563 17.3737 11.4559C17.5732 11.6555 17.6848 11.9262 17.6848 12.2087V25.6829C17.6848 25.9654 17.5732 26.236 17.3737 26.4357C17.1742 26.6353 16.9037 26.7486 16.6214 26.7486Z" fill="#025B37"/>
<path d="M10.3658 11.4559C10.1662 11.2563 9.89573 11.1429 9.61339 11.1429H1.06346C0.781109 11.1429 0.510595 11.2546 0.311091 11.4542C0.111587 11.6538 0 11.9262 0 12.2087V25.6829C0 25.9654 0.111587 26.236 0.311091 26.4357C0.510595 26.6353 0.781109 26.7486 1.06346 26.7486H2.83194C3.11429 26.7486 3.3848 26.637 3.58431 26.4373C3.78381 26.2377 3.8954 25.9671 3.8954 25.6845V15.0456H9.6117C9.89404 15.0456 10.1646 14.934 10.3641 14.7344C10.5636 14.5347 10.6752 14.2624 10.6752 13.9799V12.2104C10.6752 11.9279 10.5636 11.6572 10.3641 11.4576L10.3658 11.4559Z" fill="#025B37"/>
<path d="M25.8036 26.7487H23.063C22.7807 26.7487 22.5101 26.637 22.3106 26.4374C22.1111 26.2378 21.9995 25.9671 21.9995 25.6846V23.3805C21.2827 22.1321 20.9073 20.6028 20.9073 18.9484C20.9073 17.2939 21.281 15.7646 21.9995 14.5162V5.34395C21.9995 5.06144 22.1111 4.79077 22.3106 4.59116C22.5101 4.39154 22.7807 4.2782 23.063 4.2782H24.8315C25.1138 4.2782 25.3844 4.38985 25.5839 4.58947C25.7834 4.78908 25.8949 5.05975 25.8949 5.34226V11.1125C26.862 10.7387 27.9847 10.5188 29.1699 10.5188C34.1287 10.5188 37.4357 14.0764 37.4357 18.945C37.4357 23.8136 34.1287 27.3712 29.1699 27.3712C27.9525 27.3712 26.7995 27.153 25.8003 26.747L25.8036 26.7487ZM33.5387 18.9467C33.5387 16.262 31.7296 14.2658 29.1715 14.2658C26.6135 14.2658 24.8044 16.2637 24.8044 18.9467C24.8044 21.6297 26.6135 23.6275 29.1715 23.6275C31.7296 23.6275 33.5387 21.6297 33.5387 18.9467V18.9467Z" fill="#025B37"/>
<path d="M56.0996 18.9467C56.0996 23.8153 52.7926 27.3729 47.8338 27.3729C42.8749 27.3729 39.5679 23.8153 39.5679 18.9467C39.5679 14.0781 42.8749 10.5205 47.8338 10.5205C52.7926 10.5205 56.0996 14.0781 56.0996 18.9467ZM43.4667 18.9467C43.4667 21.6297 45.2757 23.6276 47.8338 23.6276C50.3918 23.6276 52.2009 21.6297 52.2009 18.9467C52.2009 16.2637 50.3918 14.2659 47.8338 14.2659C45.2757 14.2659 43.4667 16.2637 43.4667 18.9467V18.9467Z" fill="#025B37"/>
<path d="M60.0168 11.1447H61.7599C61.9594 11.1447 62.1505 11.2242 62.2925 11.3646C62.5393 11.6116 62.918 11.6505 63.2173 11.4712C64.2334 10.8622 65.4778 10.5188 66.8134 10.5188C70.6192 10.5188 73.4258 13.2661 73.4258 16.9167V25.6829C73.4258 25.9654 73.3142 26.2361 73.1147 26.4357C72.9152 26.6353 72.6447 26.7487 72.3624 26.7487H70.5939C70.3115 26.7487 70.041 26.637 69.8415 26.4357C69.642 26.2361 69.5304 25.9654 69.5304 25.6829V17.3853C69.5304 15.4822 68.0324 14.1085 66.1929 14.1085C64.3535 14.1085 62.8555 15.357 62.8555 17.0723V25.6812C62.8555 25.9638 62.7439 26.2344 62.5444 26.434C62.3449 26.6337 62.0744 26.747 61.792 26.747H60.0235C59.7412 26.747 59.4707 26.6353 59.2712 26.434C59.0717 26.2344 58.9601 25.9638 58.9601 25.6812V12.2088C58.9601 11.9263 59.0717 11.6556 59.2712 11.456C59.4707 11.2564 59.7412 11.143 60.0235 11.143L60.0168 11.1447Z" fill="#025B37"/>
</svg>